<svg xmlns="http://www.w3.org/2000/svg" viewBox="0 0 48 48">
  <defs>
    <linearGradient id="si-bg" x1="6" y1="4" x2="42" y2="44" gradientUnits="userSpaceOnUse">
      <stop offset="0" stop-color="#2c325d"/>
      <stop offset="0.55" stop-color="#151a33"/>
      <stop offset="1" stop-color="#070911"/>
    </linearGradient>
    <radialGradient id="si-glow" cx="0.28" cy="0.2" r="0.85">
      <stop offset="0" stop-color="#9caeff" stop-opacity="0.35"/>
      <stop offset="1" stop-color="#9caeff" stop-opacity="0"/>
    </radialGradient>
    <linearGradient id="si-main" x1="14" y1="12" x2="31" y2="35" gradientUnits="userSpaceOnUse">
      <stop offset="0" stop-color="#d7deff"/>
      <stop offset="1" stop-color="#8a9cff"/>
    </linearGradient>
  </defs>

  <rect width="48" height="48" rx="11" fill="url(#si-bg)"/>
  <rect width="48" height="48" rx="11" fill="url(#si-glow)"/>

  <path
    d="M31 15C31 10 18 10 18 16C18 22 30 22 30 29C30 36 18 37 14 33"
    fill="none"
    stroke="#1c2156"
    stroke-width="7.3"
    stroke-linecap="round"
    transform="translate(3.4,3.4)"
    opacity="0.95"
  />

  <path
    d="M31 15C31 10 18 10 18 16C18 22 30 22 30 29C30 36 18 37 14 33"
    fill="none"
    stroke="#4a59d8"
    stroke-width="5.2"
    stroke-linecap="round"
    transform="translate(1.3,1.4)"
    opacity="0.65"
  />

  <path
    d="M31 15C31 10 18 10 18 16C18 22 30 22 30 29C30 36 18 37 14 33"
    fill="none"
    stroke="url(#si-main)"
    stroke-width="3.7"
    stroke-linecap="round"
  />
</svg>
